<svg width="50" height="50" viewBox="0 0 50 50" fill="none" xmlns="http://www.w3.org/2000/svg">
<circle opacity="0.1" cx="25" cy="25" r="25" fill="#9564AA"/>
<path fill-rule="evenodd" clip-rule="evenodd" d="M25 18C27.7275 18 30.3357 19.4306 32.7663 21.7811C33.5955 22.583 34.3457 23.4392 35.0061 24.2956C35.4046 24.8124 35.6875 25.219 35.8424 25.4612L36.187 26L35.8424 26.5388C35.6875 26.781 35.4046 27.1876 35.0061 27.7044C34.3457 28.5608 33.5955 29.417 32.7663 30.2188C30.3357 32.5694 27.7275 34 25 34C22.2725 34 19.6643 32.5694 17.2337 30.2188C16.4045 29.417 15.6543 28.5608 14.9939 27.7044C14.5954 27.1876 14.3125 26.781 14.1576 26.5388L13.813 26L14.1576 25.4612C14.3125 25.219 14.5954 24.8124 14.9939 24.2956C15.6543 23.4392 16.4045 22.583 17.2337 21.7811C19.6643 19.4306 22.2725 18 25 18ZM33.4223 25.5169C32.8176 24.7327 32.1302 23.9482 31.376 23.2189C29.2825 21.1944 27.1051 20 25 20C22.8949 20 20.7175 21.1944 18.624 23.2189C17.8698 23.9482 17.1824 24.7327 16.5777 25.5169C16.4472 25.6862 16.3265 25.8478 16.2162 26C16.3265 26.1522 16.4472 26.3138 16.5777 26.4831C17.1824 27.2673 17.8698 28.0518 18.624 28.7811C20.7175 30.8056 22.8949 32 25 32C27.1051 32 29.2825 30.8056 31.376 28.7811C32.1302 28.0518 32.8176 27.2673 33.4223 26.4831C33.5528 26.3138 33.6735 26.1522 33.7838 26C33.6735 25.8478 33.5528 25.6862 33.4223 25.5169ZM21 26C21 28.2091 22.7909 30 25 30C27.2091 30 29 28.2091 29 26C29 23.7909 27.2091 22 25 22C22.7909 22 21 23.7909 21 26ZM27 26C27 27.1046 26.1046 28 25 28C23.8954 28 23 27.1046 23 26C23 24.8954 23.8954 24 25 24C26.1046 24 27 24.8954 27 26Z" fill="#9564AA"/>
</svg>
