<svg width="50" height="50" viewBox="0 0 50 50" fill="none" xmlns="http://www.w3.org/2000/svg">
<circle opacity="0.1" cx="25" cy="25" r="25" fill="#9564AA"/>
<path fill-rule="evenodd" clip-rule="evenodd" d="M18.497 20C18.1688 19.4634 18 18.8029 18 18C18 16.4171 19.1904 15 21 15C22.812 15 24.2733 16.2136 25 18.1138C25.7267 16.2136 27.188 15 29 15C30.8096 15 32 16.4171 32 18C32 18.8029 31.8312 19.4634 31.503 20H33C34.1046 20 35 20.8954 35 22V24C35 25.1046 34.1046 26 33 26V33C33 34.1046 32.1046 35 31 35H19C17.8954 35 17 34.1046 17 33V26C15.8954 26 15 25.1046 15 24V22C15 20.8954 15.8954 20 17 20H18.497ZM24 22H17V24H24V22ZM33 24H26V22H33V24ZM24 33V26H19V33H24ZM31 33H26V26H31V33ZM21 17C20.3796 17 20 17.452 20 18C20 19.2532 21.017 19.8491 23.4294 19.9745C23.1613 18.1116 22.1622 17 21 17ZM26.5 19.9745C26.7681 18.1116 27.7672 17 28.9294 17C29.5498 17 29.9294 17.452 29.9294 18C29.9294 19.2532 28.9124 19.8491 26.5 19.9745Z" fill="#9564AA"/>
</svg>
