<svg width="50" height="50" viewBox="0 0 50 50" fill="none" xmlns="http://www.w3.org/2000/svg">
<circle opacity="0.1" cx="25" cy="25" r="25" fill="#9564AA"/>
<path fill-rule="evenodd" clip-rule="evenodd" d="M29.5532 17C28.1056 17 27.1724 17.1725 26.1027 17.6961C25.7066 17.8899 25.335 18.1234 24.99 18.3958C24.6582 18.1387 24.3015 17.9159 23.9218 17.7281C22.8313 17.1888 21.8503 17 20.4545 17C16.7164 17 14 20.0973 14 24.1199C14 27.1578 15.6938 30.0923 18.8488 32.9299C20.5049 34.4193 22.6193 35.8933 24.1336 36.6775L25 37.1261L25.8664 36.6775C27.3807 35.8933 29.4951 34.4193 31.1512 32.9299C34.3062 30.0923 36 27.1578 36 24.1199C36 20.1398 33.2579 17.0154 29.5532 17ZM34 24.1199C34 26.4999 32.5862 28.9493 29.8137 31.4429C28.3022 32.8023 26.359 34.1609 25 34.8737C23.641 34.1609 21.6978 32.8023 20.1863 31.4429C17.4138 28.9493 16 26.4999 16 24.1199C16 21.1477 17.8836 19 20.4545 19C21.5643 19 22.2481 19.1316 23.0351 19.5208C23.5 19.7508 23.9109 20.0544 24.2665 20.4338L25.0023 21.2187L25.7315 20.4275C26.0951 20.033 26.512 19.7224 26.9819 19.4924C27.7459 19.1185 28.387 19 29.5491 19C32.0882 19.0105 34 21.189 34 24.1199Z" fill="#9564AA"/>
</svg>
